# xmcd
#
# Track frame offsets: 
#        182
#        10895
#        23195
#        32327
#        44760
#        54812
#        67382
#        77257
#        90612
#        102040
#
# Disc length: 1525 seconds
#
# Revision: 2
# Processed by: cddbd v1.5.1PL0 Copyright (c) Steve Scherf et al.
# Submitted via: ExactAudioCopy v0.95a5
#
DISCID=7005f30a
DTITLE=Hank Thompson - Greatest Hits - Vol. 2
DYEAR=1993
DGENRE=Country
TTITLE0=Whoa Sailor
TTITLE1=The New Wears Off Too Fast
TTITLE2=No Help Wanted
TTITLE3=Breakin' the Rules
TTITLE4=A Fooler, A Faker
TTITLE5=We've Gone Too Far
TTITLE6=The New Green Light
TTITLE7=Wildwood Flower (w Merle Travis)
TTITLE8=Breakin' in Another Heart
TTITLE9=Most of All
EXTD=
EXTT0=
EXTT1=
EXTT2=
EXTT3=
EXTT4=
EXTT5=
EXTT6=
EXTT7=
EXTT8=
EXTT9=
PLAYORDER=
